<?xml version="1.0" standalone="no"?>
<!DOCTYPE svg PUBLIC "-//W3C//DTD SVG 20010904//EN"
 "http://www.w3.org/TR/2001/REC-SVG-20010904/DTD/svg10.dtd">
<svg version="1.0" xmlns="http://www.w3.org/2000/svg"
 width="260.000000pt" height="260.000000pt" viewBox="0 0 260.000000 260.000000"
 preserveAspectRatio="xMidYMid meet">
<metadata>
Created by potrace 1.11, written by Peter Selinger 2001-2013
</metadata>
<g transform="translate(0.000000,260.000000) scale(0.100000,-0.100000)"
fill="#000000" stroke="none">
<path d="M51 2096 c-52 -29 -50 -8 -51 -793 0 -547 3 -739 12 -758 26 -58 -39
-55 1288 -55 1327 0 1262 -3 1288 55 17 37 17 1473 0 1510 -26 58 39 55 -1290
55 -996 -1 -1227 -3 -1247 -14z m2214 -438 c64 -33 108 -80 135 -142 11 -27
19 -50 18 -51 -5 -4 -137 -35 -147 -35 -6 0 -18 16 -27 35 -49 105 -198 122
-281 33 -37 -39 -53 -102 -53 -202 0 -119 19 -184 65 -225 95 -83 218 -56 272
58 l27 58 74 -24 c65 -23 72 -27 66 -47 -16 -53 -56 -115 -96 -153 -63 -58
-127 -76 -242 -71 -111 5 -171 32 -239 108 -57 64 -87 140 -94 245 -14 205 76
372 229 427 80 28 225 21 293 -14z m-1895 -255 c0 -245 2 -282 18 -313 46 -92
226 -94 264 -2 7 17 13 131 16 310 l4 282 80 0 80 0 -5 -297 c-3 -192 -9 -312
-16 -336 -17 -54 -72 -111 -134 -138 -43 -19 -69 -23 -157 -23 -88 0 -114 4
-158 24 -70 31 -127 95 -141 161 -6 29 -11 169 -11 329 l0 280 80 0 80 0 0
-277z m782 110 l3 -167 154 167 155 167 103 0 c57 0 103 -3 103 -8 0 -4 -63
-70 -140 -147 -84 -84 -139 -146 -137 -155 2 -8 67 -112 143 -230 77 -118 143
-221 148 -227 5 -10 -16 -13 -98 -13 l-105 0 -102 173 c-56 94 -104 174 -106
176 -2 3 -30 -22 -63 -54 l-60 -59 0 -118 0 -118 -80 0 -80 0 0 390 0 390 80
0 80 0 2 -167z"/>
</g>
</svg>
